<svg xmlns="http://www.w3.org/2000/svg" width="29.82" height="26.193" viewBox="0 0 29.82 26.193">
  <g id="bar" transform="translate(0 -6.201)">
    <g id="Group_14" data-name="Group 14" transform="translate(0 6.201)">
      <path id="Path_6" data-name="Path 6" d="M12.866,47.432l-4.9,5.1v8.6a.439.439,0,0,0,.439.439h5.947a.439.439,0,0,0,.439-.439V47.937l-1.372-.5Z" transform="translate(-5.638 -35.374)" fill="#d1d1d1"/>
      <path id="Path_7" data-name="Path 7" d="M50.686,61.1H44.74a.439.439,0,0,0-.439.439V70.8a.439.439,0,0,0,.439.439h5.946a.439.439,0,0,0,.439-.439v-9.26A.439.439,0,0,0,50.686,61.1Z" transform="translate(-31.346 -45.045)" fill="#d1d1d1"/>
      <path id="Path_8" data-name="Path 8" d="M85.387,26.846a1.6,1.6,0,0,1-1.763-.19l-1.08-.9-3.908,4.264V45.789a.439.439,0,0,0,.439.439H85.02a.439.439,0,0,0,.439-.439V26.8C85.434,26.816,85.412,26.833,85.387,26.846Z" transform="translate(-55.639 -20.035)" fill="#d1d1d1"/>
      <path id="Path_9" data-name="Path 9" d="M16.9,20.207a.879.879,0,0,0,.95-.23l9.019-9.839L28.981,11.9a.332.332,0,0,0,.544-.284L29.068,6.5a.331.331,0,0,0-.36-.3l-5.115.457a.332.332,0,0,0-.287.231.324.324,0,0,0-.014.129.331.331,0,0,0,.118.225l2.114,1.767-8.567,9.346-9.781-3.6a.879.879,0,0,0-.935.215l-6,6.239A.877.877,0,0,0,1.51,22.428l5.6-5.825Z" transform="translate(0 -6.201)" fill="#d1d1d1"/>
    </g>
  </g>
</svg>
