<svg xmlns="http://www.w3.org/2000/svg" width="24.508" height="28.009" viewBox="0 0 24.508 28.009">
  <path id="Icon_awesome-calendar" data-name="Icon awesome-calendar" d="M.656,10.5h23.2a.658.658,0,0,1,.656.656V25.383a2.627,2.627,0,0,1-2.626,2.626H2.626A2.627,2.627,0,0,1,0,25.383V11.16A.658.658,0,0,1,.656,10.5ZM24.508,8.1V6.127A2.627,2.627,0,0,0,21.882,3.5H19.256V.656A.658.658,0,0,0,18.6,0H16.412a.658.658,0,0,0-.656.656V3.5h-7V.656A.658.658,0,0,0,8.1,0H5.908a.658.658,0,0,0-.656.656V3.5H2.626A2.627,2.627,0,0,0,0,6.127V8.1a.658.658,0,0,0,.656.656h23.2A.658.658,0,0,0,24.508,8.1Z" fill="#a5a5a5"/>
</svg>
