<svg xmlns="http://www.w3.org/2000/svg" width="23.079" height="20.507" viewBox="0 0 23.079 20.507">
  <g id="heartbeat" transform="translate(0.001 -0.5)">
    <path id="Path_63" data-name="Path 63" d="M39.18,185.543,36.6,179.1l-.922,2.768H30.434c1.406,2.183,3.844,4.268,6.922,6.89.88.75,1.817,1.548,2.8,2.409l.445.39.445-.39c.984-.861,1.92-1.659,2.8-2.409,3.078-2.623,5.516-4.707,6.922-6.89h-9.75Zm0,0" transform="translate(-29.063 -170.547)" fill="#bfbfbf"/>
    <path id="Path_64" data-name="Path 64" d="M17,.5a6.269,6.269,0,0,0-5.457,3.63A6.235,6.235,0,0,0,6.128.5H6.082A6.366,6.366,0,0,0,.007,6.749,7.143,7.143,0,0,0,.6,9.966H5.642L7.424,4.62,10.255,11.7l.866-1.731H22.476a7.138,7.138,0,0,0,.593-3.217A6.366,6.366,0,0,0,17,.5Zm0,0" fill="#bfbfbf"/>
  </g>
</svg>
