<svg xmlns="http://www.w3.org/2000/svg" width="58.001" height="66.604" viewBox="0 0 58.001 66.604">
  <g id="lock" transform="translate(-32.94)">
    <path id="Path_162" data-name="Path 162" d="M134.53,21.3V33.3h-9.714V21.3a11.593,11.593,0,0,0-11.58-11.581h0A11.593,11.593,0,0,0,101.654,21.3V33.3H91.94V21.3A21.319,21.319,0,0,1,113.235,0h0A21.318,21.318,0,0,1,134.53,21.3Z" transform="translate(-51.295)" fill="#329997"/>
    <path id="Path_163" data-name="Path 163" d="M276.3,21.3V33.3h-9.714V21.3A11.593,11.593,0,0,0,255,9.714h0V0h0A21.318,21.318,0,0,1,276.3,21.3Z" transform="translate(-193.06)" fill="#329997"/>
    <path id="Path_164" data-name="Path 164" d="M90.941,229.912v28.8a4.163,4.163,0,0,1-4.162,4.163H37.1a4.163,4.163,0,0,1-4.162-4.163v-28.8A4.162,4.162,0,0,1,37.1,225.75H86.778A4.162,4.162,0,0,1,90.941,229.912Z" transform="translate(0 -196.268)" fill="#329997"/>
    <path id="Path_165" data-name="Path 165" d="M284,229.912v28.8a4.163,4.163,0,0,1-4.162,4.163H255V225.75h24.838A4.162,4.162,0,0,1,284,229.912Z" transform="translate(-193.06 -196.268)" fill="rgba(50,153,151,0.46)"/>
    <path id="Path_166" data-name="Path 166" d="M211.38,289a.243.243,0,0,0-.178.223v1.638a1.959,1.959,0,0,1-3.918,0V289.22a4.141,4.141,0,0,1,1.959-3.52,4.223,4.223,0,0,1,.919-.428,2.956,2.956,0,1,0-3.875-2.809,1.959,1.959,0,0,1-3.918,0A6.873,6.873,0,1,1,211.38,289Z" transform="translate(-147.303 -239.599)" fill="#fff"/>
    <path id="Path_167" data-name="Path 167" d="M257.137,289a.243.243,0,0,0-.178.223v1.638A1.959,1.959,0,0,1,255,292.817V285.7a4.226,4.226,0,0,1,.919-.428,2.956,2.956,0,0,0-.919-5.765V275.59A6.874,6.874,0,0,1,257.137,289Z" transform="translate(-193.06 -239.599)" fill="#fff"/>
    <path id="Path_168" data-name="Path 168" d="M243.918,431.239v.165a1.959,1.959,0,1,1-3.918,0v-.165a1.959,1.959,0,0,1,3.918,0Z" transform="translate(-180.019 -373.217)" fill="#fff"/>
    <path id="Path_169" data-name="Path 169" d="M256.959,431.239v.165A1.96,1.96,0,0,1,255,433.362V429.28A1.96,1.96,0,0,1,256.959,431.239Z" transform="translate(-193.06 -373.217)" fill="#fff"/>
  </g>
</svg>
