<svg xmlns="http://www.w3.org/2000/svg" width="21.213" height="20.444" viewBox="0 0 21.213 20.444">
  <g id="charity" transform="translate(0 -8.125)">
    <g id="Group_67" data-name="Group 67" transform="translate(7.322 8.125)">
      <g id="Group_66" data-name="Group 66">
        <path id="Path_42" data-name="Path 42" d="M164.1,8.86a2.727,2.727,0,0,0-1.884-.735,3,3,0,0,0-2.117.88l-.248.248L159.6,9a3.006,3.006,0,0,0-2.117-.879,2.727,2.727,0,0,0-1.884.735,2.814,2.814,0,0,0-.062,4.04l4.311,4.311,4.311-4.311A2.814,2.814,0,0,0,164.1,8.86Z" transform="translate(-154.712 -8.125)" fill="#bfbfbf"/>
      </g>
    </g>
    <g id="Group_69" data-name="Group 69" transform="translate(0 18.726)">
      <g id="Group_68" data-name="Group 68">
        <path id="Path_43" data-name="Path 43" d="M20.937,232.8a1.955,1.955,0,0,0-2.135.077c-.691.4-4.661,3.793-4.661,3.793H10.234a.427.427,0,0,1-.379-.385.387.387,0,0,1,.379-.379h2.39A1.656,1.656,0,0,0,14.4,234.4a1.615,1.615,0,0,0-1.773-1.514c-1.452,0-1.734.006-1.734.006a3.518,3.518,0,0,1-1.626-.278,4.483,4.483,0,0,0-2.049-.486,4.375,4.375,0,0,0-3.139,1.286L0,237.425l4.543,4.543,1.514-1.514h7.668a3.117,3.117,0,0,0,2.07-.787l5.192-5.824A.664.664,0,0,0,20.937,232.8Z" transform="translate(0 -232.125)" fill="#bfbfbf"/>
      </g>
    </g>
  </g>
</svg>
