<svg xmlns="http://www.w3.org/2000/svg" width="52.674" height="52.881" viewBox="0 0 52.674 52.881">
  <g id="add-friend" transform="translate(-1)">
    <path id="Path_177" data-name="Path 177" d="M121.981,23.962a11.981,11.981,0,1,1,11.981-11.981A11.994,11.994,0,0,1,121.981,23.962Z" transform="translate(-97.742)" fill="rgba(255,255,255,0.57)"/>
    <g id="Group_258" data-name="Group 258" transform="translate(1 21.896)">
      <g id="Group_257" data-name="Group 257" transform="translate(0 2.595)">
        <path id="Path_178" data-name="Path 178" d="M28.886,245.376a13.859,13.859,0,0,1,2.036-7.247,15.046,15.046,0,0,1-15.093-1A23.287,23.287,0,0,0,1,258.8v5.164a1.549,1.549,0,0,0,1.549,1.549H45.928a1.549,1.549,0,0,0,1.549-1.549V258.8c0-.093,0-.186,0-.28a13.943,13.943,0,0,1-18.587-13.147Z" transform="translate(-1 -237.126)" fill="rgba(255,255,255,0.57)"/>
      </g>
      <path id="Path_179" data-name="Path 179" d="M311.845,212a10.845,10.845,0,1,0,10.845,10.845A10.857,10.857,0,0,0,311.845,212Zm3.1,12.394h-1.549v1.549a1.549,1.549,0,1,1-3.1,0v-1.549h-1.549a1.549,1.549,0,1,1,0-3.1H310.3v-1.549a1.549,1.549,0,1,1,3.1,0V221.3h1.549a1.549,1.549,0,1,1,0,3.1Z" transform="translate(-270.015 -212)" fill="rgba(255,255,255,0.57)"/>
    </g>
  </g>
</svg>
