<svg id="add" xmlns="http://www.w3.org/2000/svg" width="12.234" height="12.234" viewBox="0 0 12.234 12.234">
  <path id="Path_250" data-name="Path 250" d="M7.264,0H1.4A1.4,1.4,0,0,0,0,1.4V9.3a1.4,1.4,0,0,0,1.4,1.4H4.761a4.451,4.451,0,0,1-.428-1.912,4.406,4.406,0,0,1,.321-1.662.269.269,0,0,1-.066.005H2.039a.51.51,0,0,1,0-1.02H4.588a.5.5,0,0,1,.449.275A4.5,4.5,0,0,1,6.3,5.1H2.039a.51.51,0,1,1,0-1.02H6.627a.511.511,0,0,1,.51.51.269.269,0,0,1-.005.066,4.272,4.272,0,0,1,1.534-.316V1.4A1.4,1.4,0,0,0,7.264,0ZM4.078,3.059H2.039a.51.51,0,1,1,0-1.02H4.078a.51.51,0,0,1,0,1.02Z" fill="#fff"/>
  <path id="Path_251" data-name="Path 251" d="M13.941,10.5a3.441,3.441,0,1,0,3.441,3.441A3.445,3.445,0,0,0,13.941,10.5Zm1.4,3.951h-.892v.892a.51.51,0,0,1-1.02,0v-.892h-.892a.51.51,0,0,1,0-1.02h.892v-.892a.51.51,0,0,1,1.02,0v.892h.892a.51.51,0,0,1,0,1.02Z" transform="translate(-5.147 -5.147)" fill="#fff"/>
</svg>
