<svg xmlns="http://www.w3.org/2000/svg" width="24.508" height="28.009" viewBox="0 0 24.508 28.009">
  <path id="Icon_awesome-calendar-check" data-name="Icon awesome-calendar-check" d="M23.852,8.753H.656A.656.656,0,0,1,0,8.1V6.127A2.626,2.626,0,0,1,2.626,3.5H5.252V.656A.656.656,0,0,1,5.908,0H8.1a.656.656,0,0,1,.656.656V3.5h7V.656A.656.656,0,0,1,16.412,0H18.6a.656.656,0,0,1,.656.656V3.5h2.626a2.626,2.626,0,0,1,2.626,2.626V8.1A.656.656,0,0,1,23.852,8.753ZM.656,10.5h23.2a.656.656,0,0,1,.656.656V25.383a2.626,2.626,0,0,1-2.626,2.626H2.626A2.626,2.626,0,0,1,0,25.383V11.16A.656.656,0,0,1,.656,10.5ZM18.89,15.752,17.349,14.2a.656.656,0,0,0-.928,0l-5.8,5.754L8.1,17.414a.656.656,0,0,0-.928,0L5.622,18.951a.656.656,0,0,0,0,.928l4.519,4.555a.656.656,0,0,0,.928,0l7.82-7.758a.656.656,0,0,0,0-.928Z" fill="#17ad34"/>
</svg>
