<svg xmlns="http://www.w3.org/2000/svg" width="13.708" height="19.918" viewBox="0 0 13.708 19.918">
  <g id="checklist" transform="translate(-76)">
    <path id="Path_151" data-name="Path 151" d="M316.539,12.784h3.456L316,8.789v3.456A.539.539,0,0,0,316.539,12.784Z" transform="translate(-230.602 -8.473)" fill="#329997"/>
    <path id="Path_152" data-name="Path 152" d="M85.71,5.835A1.734,1.734,0,0,1,84,4.085V0H76.571A.577.577,0,0,0,76,.584V19.335a.577.577,0,0,0,.571.584H89.137a.577.577,0,0,0,.571-.584V5.835ZM79.427,16.378A.584.584,0,1,1,80,15.795.577.577,0,0,1,79.427,16.378Zm0-2.334A.584.584,0,1,1,80,13.46.577.577,0,0,1,79.427,14.044Zm0-2.334A.584.584,0,1,1,80,11.126.577.577,0,0,1,79.427,11.71Zm0-2.334A.584.584,0,1,1,80,8.792.577.577,0,0,1,79.427,9.376Zm6.854,7H81.712a.584.584,0,0,1,0-1.167h4.569a.584.584,0,0,1,0,1.167Zm0-2.334H81.712a.584.584,0,0,1,0-1.167h4.569a.584.584,0,0,1,0,1.167Zm0-2.334H81.712a.584.584,0,0,1,0-1.167h4.569a.584.584,0,0,1,0,1.167Zm0-2.334H81.712a.584.584,0,0,1,0-1.167h4.569a.584.584,0,0,1,0,1.167Z" fill="#329997"/>
  </g>
</svg>
