<svg xmlns="http://www.w3.org/2000/svg" width="23.693" height="20.707" viewBox="0 0 23.693 20.707">
  <g id="customer" transform="translate(0 -32.517)">
    <circle id="Ellipse_110" data-name="Ellipse 110" cx="4.18" cy="4.18" r="4.18" transform="translate(7.663 32.517)" fill="#329997"/>
    <ellipse id="Ellipse_111" data-name="Ellipse 111" cx="2.438" cy="2.786" rx="2.438" ry="2.786" transform="translate(17.415 35.303)" fill="#329997"/>
    <ellipse id="Ellipse_112" data-name="Ellipse 112" cx="2.438" cy="2.786" rx="2.438" ry="2.786" transform="translate(1.393 35.303)" fill="#329997"/>
    <path id="Path_148" data-name="Path 148" d="M6.21,241.245c-1-.821-1.909-.712-3.068-.712A3.136,3.136,0,0,0,0,243.656v5.054a1.36,1.36,0,0,0,1.361,1.356c3.24,0,2.85.059,2.85-.14C4.211,246.345,3.787,243.719,6.21,241.245Z" transform="translate(0 -198.357)" fill="#329997"/>
    <path id="Path_149" data-name="Path 149" d="M127.571,239.9c-2.023-.169-3.782,0-5.3,1.254-2.538,2.033-2.05,4.771-2.05,8.12a1.623,1.623,0,0,0,1.621,1.621c9.768,0,10.157.315,10.736-.968.19-.434.138-.3.138-4.446A5.61,5.61,0,0,0,127.571,239.9Z" transform="translate(-114.623 -197.71)" fill="#329997"/>
    <path id="Path_150" data-name="Path 150" d="M380.878,240.534c-1.165,0-2.067-.108-3.068.712,2.4,2.455,2,4.9,2,8.681,0,.2-.324.14,2.8.14a1.408,1.408,0,0,0,1.409-1.4v-5.006A3.136,3.136,0,0,0,380.878,240.534Z" transform="translate(-360.327 -198.358)" fill="#329997"/>
  </g>
</svg>
