<svg xmlns="http://www.w3.org/2000/svg" width="21.007" height="17.506" viewBox="0 0 21.007 17.506">
  <g id="stomach" transform="translate(0 -42.666)">
    <g id="Group_164" data-name="Group 164" transform="translate(0 42.666)">
      <path id="Path_158" data-name="Path 158" d="M14,42.666a4.214,4.214,0,0,0-3.868,2.626H9.628a1.753,1.753,0,0,1-1.751-1.751.436.436,0,0,0-.109-.288,2.163,2.163,0,0,0-1.642-.587,2.163,2.163,0,0,0-1.642.587.436.436,0,0,0-.109.288,5.257,5.257,0,0,0,5.252,5.252H9.8a2.621,2.621,0,0,0,.891,1.222,3.919,3.919,0,0,0,.171,2.6,2.436,2.436,0,0,0-1.125,1.43,4.861,4.861,0,0,0-2.888.759A6.56,6.56,0,0,0,3.5,54.045c-2.192,0-3.5,2.127-3.5,5.689a.437.437,0,0,0,.438.438H2.188a.437.437,0,0,0,.438-.438c0-1.923.421-2.188.875-2.188a.534.534,0,0,1,.544.274,1.356,1.356,0,0,0,1.207.6H6.408a8.4,8.4,0,0,0,4.97,1.751c3.33,0,9.628-1.829,9.628-8.753C21.007,44.238,15.953,42.666,14,42.666Z" transform="translate(0 -42.666)" fill="#bfbfbf"/>
    </g>
  </g>
</svg>
