<svg id="history" xmlns="http://www.w3.org/2000/svg" width="12.234" height="12.234" viewBox="0 0 12.234 12.234">
  <path id="Path_65" data-name="Path 65" d="M6.6,3.3V5.919l1.74,1.74a.478.478,0,0,1-.676.676l-1.88-1.88a.478.478,0,0,1-.14-.338V3.3a.478.478,0,0,1,.956,0ZM8,0H4.237A4.223,4.223,0,0,0,1.459,1.039V.478A.478.478,0,1,0,.5.478v1.88a.479.479,0,0,0,.478.478h1.88a.478.478,0,1,0,0-.956h-.9A3.293,3.293,0,0,1,4.237.956H8a3.285,3.285,0,0,1,3.282,3.282V8A3.285,3.285,0,0,1,8,11.279H4.237A3.285,3.285,0,0,1,.956,8V6.117a.478.478,0,1,0-.956,0V8a4.242,4.242,0,0,0,4.237,4.237H8A4.242,4.242,0,0,0,12.234,8V4.237A4.242,4.242,0,0,0,8,0Z" fill="#fff"/>
</svg>
