<svg xmlns="http://www.w3.org/2000/svg" width="26.19" height="26.193" viewBox="0 0 26.19 26.193">
  <path id="home_3_" data-name="home (3)" d="M25.486,11.393l0,0L14.8.707a2.411,2.411,0,0,0-3.41,0L.711,11.385.7,11.4A2.41,2.41,0,0,0,2.3,15.5q.037,0,.074,0H2.8v7.863a2.825,2.825,0,0,0,2.822,2.822h4.18a.767.767,0,0,0,.767-.767V19.261a1.289,1.289,0,0,1,1.288-1.288h2.466a1.289,1.289,0,0,1,1.288,1.288v6.165a.767.767,0,0,0,.767.767h4.18a2.825,2.825,0,0,0,2.822-2.822V15.508h.395a2.412,2.412,0,0,0,1.706-4.115Zm0,0" transform="translate(0.001)" fill="#fff"/>
</svg>
