<svg xmlns="http://www.w3.org/2000/svg" width="19.65" height="19.65" viewBox="0 0 19.65 19.65">
  <g id="Group_241" data-name="Group 241" transform="translate(-993 -3777)">
    <g id="stomach-inside-human-body-svgrepo-com" transform="translate(944.825 3777)">
      <g id="Group_240" data-name="Group 240" transform="translate(54.175)">
        <path id="Path_193" data-name="Path 193" d="M61.976,9.736a2.3,2.3,0,0,1-.309-.455,5.458,5.458,0,0,1-.123-.826,2.507,2.507,0,0,0-.2-1.067,3.838,3.838,0,0,1-.373-1.44l-.014-1.585c-.109-1.081-.908-1.089-.908-1.089-.806-.121-.917-.38-.917-.38a1.133,1.133,0,0,1-.073-.716.858.858,0,0,0,.2-.421c.234-.179.223-.444.116-.441-.088,0-.068-.069-.068-.069A1,1,0,0,0,58.391,0h-.161a1,1,0,0,0-.907,1.246s.02.072-.068.069c-.108,0-.119.261.116.441a.857.857,0,0,0,.2.421,1.137,1.137,0,0,1-.074.716s-.112.259-.917.38c0,0-.8.008-.907,1.089l-.014,1.585a3.834,3.834,0,0,1-.374,1.44,2.5,2.5,0,0,0-.2,1.067,5.449,5.449,0,0,1-.124.826,2.239,2.239,0,0,1-.309.455c-.228.287-.615.882-.409.948,0,0,.161.015.372-.4a2.476,2.476,0,0,1-.175.631c-.032.088-.174.532.055.372,0,0,.106-.073.245-.532,0,0-.075.771.007.809.108.053.167-.1.216-.775,0,0,.05-.218.073.615,0,.042.065.256.153.074a2.259,2.259,0,0,0,.041-.7s.095.526.183.526c0,0,.1.123.062-.53a3.193,3.193,0,0,1,.034-.392l.01-.251s-.026-.287-.026-.406a2.654,2.654,0,0,1,.374-.833,4.053,4.053,0,0,0,.527-1.652,2.146,2.146,0,0,1,.219-.976,13.755,13.755,0,0,1,.052,2.26,5.194,5.194,0,0,0-.4,2.124,26.507,26.507,0,0,0,.4,2.689c.083.294.034,1.038.1,1.223.029.081.014.154-.051.339-.228.639-.2,1.089.373,2.786a2.042,2.042,0,0,1,.087,1.051s-.366.751-.131.766c0,0,.02.05.1.01a.242.242,0,0,0,.263.06.2.2,0,0,0,.235.011.164.164,0,0,0,.214.019s.166.11.264-.01c0,0,.176.041-.137-.751a9.823,9.823,0,0,0-.186-1,4.034,4.034,0,0,1-.01-1.351,4.288,4.288,0,0,0-.059-1.232,4.375,4.375,0,0,1,.156-1.171,25.621,25.621,0,0,0,.322-2.853l.1.033a.206.206,0,0,0,.114-.033,25.492,25.492,0,0,0,.322,2.853,4.4,4.4,0,0,1,.156,1.171,4.278,4.278,0,0,0-.059,1.232,3.993,3.993,0,0,1-.01,1.351,9.724,9.724,0,0,0-.185,1c-.313.791-.137.751-.137.751.1.12.263.01.263.01a.164.164,0,0,0,.214-.019.193.193,0,0,0,.234-.011.241.241,0,0,0,.262-.06c.079.04.1-.01.1-.01.234-.015-.131-.766-.131-.766a2.046,2.046,0,0,1,.088-1.051c.573-1.7.6-2.147.373-2.786-.066-.184-.081-.258-.051-.339.068-.185.018-.929.1-1.223a26.159,26.159,0,0,0,.4-2.689,5.2,5.2,0,0,0-.4-2.124,13.755,13.755,0,0,1,.052-2.26,2.15,2.15,0,0,1,.219.976,4.041,4.041,0,0,0,.526,1.652,2.677,2.677,0,0,1,.374.833c0,.12-.026.406-.026.406l.01.251a3.389,3.389,0,0,1,.034.392c-.042.653.063.53.063.53.088,0,.183-.526.183-.526a2.249,2.249,0,0,0,.041.7c.088.18.151-.033.152-.074.023-.833.073-.615.073-.615.049.675.108.827.216.775.082-.04.007-.809.007-.809.139.456.245.532.245.532.23.16.087-.285.055-.372a2.453,2.453,0,0,1-.175-.631c.212.421.372.4.372.4C62.591,10.618,62.2,10.023,61.976,9.736Z" transform="translate(-54.175 0)" fill="#fff"/>
      </g>
    </g>
    <rect id="Rectangle_120" data-name="Rectangle 120" width="19.65" height="19.65" transform="translate(993 3777)" fill="none"/>
  </g>
</svg>
