<svg xmlns="http://www.w3.org/2000/svg" width="70.363" height="67.209" viewBox="0 0 70.363 67.209">
  <g id="XMLID_59_" transform="translate(0 -11.5)">
    <path id="XMLID_3543_" d="M64.993,16.87A18.338,18.338,0,0,0,34.909,36.409L0,71.317l5.159,5.16a7.616,7.616,0,0,0,10.772,0l.224-.224.762-5.115,4.9-.543,7.39-7.39,1.226-6.357,6.344-1.212,8.682-8.682A18.337,18.337,0,0,0,64.993,16.87ZM58.861,30.065a5,5,0,1,1,1.46-3.532A4.979,4.979,0,0,1,58.861,30.065Z" fill="#329997"/>
    <path id="XMLID_3780_" d="M98.183,50.66l-6.132,6.132a4.994,4.994,0,0,1-7.062,7.063L38.465,110.378a7.612,7.612,0,0,0,10.656-.11l.224-.224.762-5.115,4.9-.543L62.393,97l1.226-6.357,6.344-1.212,8.682-8.682A18.337,18.337,0,0,0,98.183,50.66Z" transform="translate(-33.19 -33.79)" fill="#329997"/>
  </g>
</svg>
