<svg xmlns="http://www.w3.org/2000/svg" width="26.056" height="26.193" viewBox="0 0 26.056 26.193">
  <g id="patient_1_" data-name="patient (1)" transform="translate(0 0.183)">
    <path id="Path_4" data-name="Path 4" d="M14.971,24.685a1.086,1.086,0,0,1-.9-.483l-1.849-2.774H10.086a1.086,1.086,0,1,1,0-2.171H12.8a1.087,1.087,0,0,1,.9.483l1.133,1.7,2.42-4.841a1.087,1.087,0,0,1,.929-.6,1.071,1.071,0,0,1,.973.525l2.941,4.9h2.1a1.086,1.086,0,1,1,0,2.171H21.485a1.084,1.084,0,0,1-.93-.527l-2.24-3.732-2.372,4.745a1.087,1.087,0,0,1-.9.6Z" transform="translate(0.771 1.324)" fill="#d1d1d1"/>
    <ellipse id="Ellipse_4" data-name="Ellipse 4" cx="5.239" cy="5.613" rx="5.239" ry="5.613" transform="translate(4.353 -0.183)" fill="#d1d1d1"/>
    <path id="Path_5" data-name="Path 5" d="M7.6,20.685a3.261,3.261,0,0,1,3.257-3.257h2.714a3.255,3.255,0,0,1,1.583.409l.933-1.866a3.239,3.239,0,0,1,2.4-1.731A5.411,5.411,0,0,0,14.114,12H5.428A5.429,5.429,0,0,0,0,17.428v3.528a.815.815,0,0,0,.814.814H7.8A3.22,3.22,0,0,1,7.6,20.685Z" transform="translate(0 0.982)" fill="#d1d1d1"/>
  </g>
</svg>
