<svg xmlns="http://www.w3.org/2000/svg" width="19" height="14.25" viewBox="0 0 19 14.25">
  <path id="Icon_awesome-chart-bar" data-name="Icon awesome-chart-bar" d="M12.35,14h1.425a.511.511,0,0,0,.475-.475V8.537a.511.511,0,0,0-.475-.475H12.35a.511.511,0,0,0-.475.475v4.988A.511.511,0,0,0,12.35,14Zm3.563,0h1.425a.511.511,0,0,0,.475-.475V4.975a.511.511,0,0,0-.475-.475H15.912a.511.511,0,0,0-.475.475v8.55a.511.511,0,0,0,.475.475ZM5.225,14H6.65a.511.511,0,0,0,.475-.475V10.913a.511.511,0,0,0-.475-.475H5.225a.511.511,0,0,0-.475.475v2.613A.511.511,0,0,0,5.225,14Zm3.562,0h1.425a.511.511,0,0,0,.475-.475V6.162a.511.511,0,0,0-.475-.475H8.787a.511.511,0,0,0-.475.475v7.363A.511.511,0,0,0,8.787,14Zm9.619,2.375H2.375V5.094A.594.594,0,0,0,1.781,4.5H.594A.594.594,0,0,0,0,5.094V17.562A1.188,1.188,0,0,0,1.188,18.75H18.406A.594.594,0,0,0,19,18.156V16.969A.594.594,0,0,0,18.406,16.375Z" transform="translate(0 -4.5)" fill="#329997"/>
</svg>
