<svg xmlns="http://www.w3.org/2000/svg" width="19" height="21.348" viewBox="0 0 19 21.348">
  <g id="XMLID_2_" transform="translate(-25.274)">
    <g id="Group_229" data-name="Group 229" transform="translate(25.274)">
      <g id="Group_228" data-name="Group 228" transform="translate(0)">
        <path id="Path_172" data-name="Path 172" d="M40.8,281.1a4.642,4.642,0,0,1-3.758,1.917H34.877a1.73,1.73,0,0,1-1.626-1.139,5.49,5.49,0,0,1-.874-.346,5.889,5.889,0,0,1-1.633-1.209,6.974,6.974,0,0,0-5.469,6.808v.436a1.085,1.085,0,0,0,1.085,1.085h16.83a1.085,1.085,0,0,0,1.085-1.085v-.436A6.968,6.968,0,0,0,40.8,281.1Z" transform="translate(-25.274 -267.304)" fill="#329997"/>
        <path id="Path_173" data-name="Path 173" d="M92.843,10.783a1.235,1.235,0,0,0,1.082-.64l.017.045.005.014a4.821,4.821,0,0,0,2.718,2.862,1.728,1.728,0,0,1,1.464-.81h2.165a1.212,1.212,0,0,0,.593-.159,2.447,2.447,0,0,0,.7-.808,6.242,6.242,0,0,0,.541-1.144,1.241,1.241,0,0,0,.342.393v.531a2.178,2.178,0,0,1-2.176,2.176H98.13a.741.741,0,1,0,0,1.482h2.165a3.662,3.662,0,0,0,3.658-3.658v-.531a1.233,1.233,0,0,0,.494-.988V6.456a1.233,1.233,0,0,0-.513-1,5.925,5.925,0,0,0-11.813,0,1.233,1.233,0,0,0-.513,1V9.547A1.236,1.236,0,0,0,92.843,10.783Zm5.184-9.3a4.449,4.449,0,0,1,4.421,4,1.24,1.24,0,0,0-.347.429,4.229,4.229,0,0,0-8.145-.007l0,.007a1.24,1.24,0,0,0-.347-.429A4.449,4.449,0,0,1,98.027,1.482Z" transform="translate(-88.527)" fill="#329997"/>
      </g>
    </g>
  </g>
</svg>
