<svg xmlns="http://www.w3.org/2000/svg" width="389.701" height="393.812" viewBox="0 0 389.701 393.812">
  <g id="_10096600341529659202" data-name="10096600341529659202" transform="translate(6.5 7)">
    <rect id="Rectangle_109" data-name="Rectangle 109" width="374.701" height="245.105" rx="1" transform="translate(1 0.5)" fill="#fff" stroke="#085063" stroke-linecap="round" stroke-miterlimit="10" stroke-width="15"/>
    <line id="Line_15" data-name="Line 15" y2="55.702" transform="translate(188 245.525)" fill="none" stroke="#085063" stroke-linecap="round" stroke-miterlimit="10" stroke-width="15"/>
    <path id="Path_153" data-name="Path 153" d="M6.5,93.823,76.626,23.7a16.335,16.335,0,0,1,23.1,0L169.85,93.823" transform="translate(100.5 282.382)" fill="none" stroke="#085063" stroke-linecap="round" stroke-miterlimit="10" stroke-width="15"/>
    <path id="Path_154" data-name="Path 154" d="M.5,69.84H93.12a8.167,8.167,0,0,0,7.514-4.9l14.489-33.813a8.168,8.168,0,0,1,15.126.294l27.279,70.943a8.168,8.168,0,0,0,14.8.98L206.191,41.27a8.168,8.168,0,0,1,14.1-.425L245.64,81.438a8.167,8.167,0,0,0,14.375-.947L294.53,4.5" transform="translate(40.5 61.34)" fill="none" stroke="#085063" stroke-linecap="round" stroke-miterlimit="10" stroke-width="15"/>
  </g>
</svg>
