<svg xmlns="http://www.w3.org/2000/svg" width="16.444" height="20.239" viewBox="0 0 16.444 20.239">
  <path id="Icon_metro-bin" data-name="Icon metro-bin" d="M5.764,8.253V20.9a1.269,1.269,0,0,0,1.265,1.265H18.413A1.269,1.269,0,0,0,19.678,20.9V8.253H5.764ZM9.558,19.637H8.293V10.782H9.558Zm2.53,0H10.823V10.782h1.265Zm2.53,0H13.353V10.782h1.265Zm2.53,0H15.883V10.782h1.265ZM19.994,4.458H15.883V2.877a.951.951,0,0,0-.949-.949H10.507a.951.951,0,0,0-.949.949V4.458H5.447a.951.951,0,0,0-.949.949V6.988H20.943V5.407a.951.951,0,0,0-.949-.949Zm-5.376,0H10.823V3.209h3.795Z" transform="translate(-4.499 -1.928)" fill="#329997"/>
</svg>
