<svg xmlns="http://www.w3.org/2000/svg" width="18.368" height="20.487" viewBox="0 0 18.368 20.487">
  <path id="examination" d="M17.657,5.5a2.44,2.44,0,0,0-3.438,0L12.747,6.973a.35.35,0,0,1-.493,0L10.781,5.5A2.391,2.391,0,0,0,9.24,4.8H9.222a4.6,4.6,0,0,0,.2-1.326V.694A.347.347,0,0,0,9.077.347H7.639V0H6.945a.694.694,0,0,0,0,1.389h.694V1.042h1.09V3.472a3.807,3.807,0,0,1-.264,1.4A2.412,2.412,0,0,0,6.642,7.007a3.8,3.8,0,0,1-1.434.285H4.514a3.817,3.817,0,0,1-3.82-3.82V1.042H1.736v.347H2.43A.694.694,0,1,0,2.43,0H1.736V.347H.347A.347.347,0,0,0,0,.694V3.472A4.487,4.487,0,0,0,1.128,6.459c.083.094.17.181.26.264V9.028a.347.347,0,0,0,.347.347H4.167v.347h.347v7.639a3.13,3.13,0,0,0,3.125,3.125H9.722a3.13,3.13,0,0,0,3.125-3.125V13.747l4.809-4.813A2.431,2.431,0,0,0,17.657,5.5ZM2.083,8.681V7.268a4.5,4.5,0,0,0,2.431.719h.694A4.47,4.47,0,0,0,6.695,7.73a2.257,2.257,0,0,0,.3.764c.042.066.087.129.129.188Zm10.07,8.681a2.433,2.433,0,0,1-2.431,2.431H7.639a2.433,2.433,0,0,1-2.431-2.431V9.723h.347V9.376H7.785l4.368,4.372Zm.694-5.938V10.7a1.042,1.042,0,1,0-.694,0v.722a1.736,1.736,0,1,1,.694,0Zm0,0" transform="translate(0)" fill="#fff"/>
</svg>
