<svg xmlns="http://www.w3.org/2000/svg" width="20.191" height="20.192" viewBox="0 0 20.191 20.192">
  <g id="pills" transform="translate(-0.016)">
    <path id="Path_60" data-name="Path 60" d="M10.873,14.695l2.985-2.985V7.7a1.777,1.777,0,0,0-1.79-1.667h-.734V4.693h.39a1.207,1.207,0,0,0,1.187-1.164V1.239A1.264,1.264,0,0,0,11.724,0h-1.54V3.51H9V0H7.548V3.51H6.365V0H4.817V3.51H3.634V0H2.189A1.264,1.264,0,0,0,1,1.239v2.29A1.207,1.207,0,0,0,2.189,4.693H2.5V6.034H1.885A1.861,1.861,0,0,0,.016,7.7V18.456a1.929,1.929,0,0,0,1.869,1.736h9.121l-.132-.132A3.8,3.8,0,0,1,10.873,14.695ZM7.548,13.7v1.977a.592.592,0,1,1-1.183,0V13.7H4.389a.592.592,0,0,1,0-1.183H6.365V10.545a.592.592,0,0,1,1.183,0v1.977H9.525a.592.592,0,0,1,0,1.183Z" fill="#bfbfbf"/>
    <path id="Path_61" data-name="Path 61" d="M362.253,278.132l-.2-.2a2.614,2.614,0,0,0-3.692,0l-1.457,1.457,3.9,3.9,1.457-1.457A2.614,2.614,0,0,0,362.253,278.132Z" transform="translate(-342.81 -266.234)" fill="#bfbfbf"/>
    <path id="Path_62" data-name="Path 62" d="M277.941,356.215a2.614,2.614,0,0,0,0,3.692l.2.2a2.614,2.614,0,0,0,3.692,0l1.544-1.544-3.9-3.9Z" transform="translate(-266.231 -340.684)" fill="#bfbfbf"/>
  </g>
</svg>
