<svg id="list" xmlns="http://www.w3.org/2000/svg" width="50.531" height="50.531" viewBox="0 0 50.531 50.531">
  <g id="Group_152" data-name="Group 152">
    <path id="Path_147" data-name="Path 147" d="M45.117,0H5.414A5.414,5.414,0,0,0,0,5.414v39.7a5.414,5.414,0,0,0,5.414,5.414h39.7a5.414,5.414,0,0,0,5.414-5.414V5.414A5.414,5.414,0,0,0,45.117,0ZM16.242,39.7H10.828a1.8,1.8,0,0,1,0-3.609h5.414a1.8,1.8,0,0,1,0,3.609Zm0-12.633H10.828a1.8,1.8,0,0,1,0-3.609h5.414a1.8,1.8,0,0,1,0,3.609Zm0-12.633H10.828a1.8,1.8,0,1,1,0-3.609h5.414a1.8,1.8,0,1,1,0,3.609ZM39.7,39.7H23.461a1.8,1.8,0,1,1,0-3.609H39.7a1.8,1.8,0,0,1,0,3.609Zm0-12.633H23.461a1.8,1.8,0,1,1,0-3.609H39.7a1.8,1.8,0,0,1,0,3.609Zm0-12.633H23.461a1.8,1.8,0,1,1,0-3.609H39.7a1.8,1.8,0,0,1,0,3.609Z" fill="#aad4d4"/>
  </g>
</svg>
