<svg id="megaphone" xmlns="http://www.w3.org/2000/svg" width="19.017" height="14.496" viewBox="0 0 19.017 14.496">
  <path id="Path_44" data-name="Path 44" d="M220.961,10.4l6.349,3.346V0l-6.349,3.346Zm0,0" transform="translate(-212.754)" fill="#bfbfbf"/>
  <path id="Path_45" data-name="Path 45" d="M451.953,169.988h2.23V171.1h-2.23Zm0,0" transform="translate(-435.167 -163.675)" fill="#bfbfbf"/>
  <path id="Path_46" data-name="Path 46" d="M433.361,73.172l.426,1.029-2.061.854-.426-1.03Zm0,0" transform="translate(-415.281 -70.454)" fill="#bfbfbf"/>
  <path id="Path_47" data-name="Path 47" d="M433.35,247.989l-2.061-.854.426-1.03,2.061.854Zm0,0" transform="translate(-415.27 -236.965)" fill="#bfbfbf"/>
  <path id="Path_48" data-name="Path 48" d="M7.093,99.934H2.23v1.115H2.044a2.044,2.044,0,0,0,0,4.088H2.23v1.115H3.478L4.7,110.717H8.319l-1.227-4.283Zm0,0" transform="translate(0 -96.222)" fill="#bfbfbf"/>
</svg>
