<svg xmlns="http://www.w3.org/2000/svg" width="24.508" height="28.009" viewBox="0 0 24.508 28.009">
  <path id="Icon_awesome-calendar-times" data-name="Icon awesome-calendar-times" d="M23.852,8.753H.656A.658.658,0,0,1,0,8.1V6.127A2.627,2.627,0,0,1,2.626,3.5H5.252V.656A.658.658,0,0,1,5.908,0H8.1a.658.658,0,0,1,.656.656V3.5h7V.656A.658.658,0,0,1,16.412,0H18.6a.658.658,0,0,1,.656.656V3.5h2.626a2.627,2.627,0,0,1,2.626,2.626V8.1A.658.658,0,0,1,23.852,8.753ZM.656,10.5h23.2a.658.658,0,0,1,.656.656V25.383a2.627,2.627,0,0,1-2.626,2.626H2.626A2.627,2.627,0,0,1,0,25.383V11.16A.658.658,0,0,1,.656,10.5Zm14.076,8.753,2.631-2.631a.657.657,0,0,0,0-.93l-1.548-1.548a.657.657,0,0,0-.93,0l-2.631,2.631L9.623,14.147a.657.657,0,0,0-.93,0L7.145,15.7a.657.657,0,0,0,0,.93l2.631,2.631L7.145,21.888a.657.657,0,0,0,0,.93l1.548,1.548a.657.657,0,0,0,.93,0l2.631-2.631,2.631,2.631a.657.657,0,0,0,.93,0l1.548-1.548a.657.657,0,0,0,0-.93Z" fill="#af1111"/>
</svg>
