<svg xmlns="http://www.w3.org/2000/svg" width="19" height="12.512" viewBox="0 0 19 12.512">
  <g id="Group_512" data-name="Group 512" transform="translate(3550 -6382)">
    <g id="noun_Cloud_677892" transform="translate(-3550 6382)">
      <g id="Group_511" data-name="Group 511" transform="translate(0 0)">
        <path id="Path_259" data-name="Path 259" d="M20.354,975.362a4.728,4.728,0,0,1,4.656,5.163,3.71,3.71,0,0,1-.717,7.349H12.939C10.583,987.874,9,986.329,9,984.4a3.513,3.513,0,0,1,2.78-3.476,3.073,3.073,0,0,1,4.4-3.012,4.626,4.626,0,0,1,4.171-2.549Z" transform="translate(-9 -975.362)" fill="#68b19b"/>
      </g>
    </g>
    <g id="noun_Reverse_1584162" transform="translate(-3544.831 6387.706) rotate(-30)">
      <path id="Path_260" data-name="Path 260" d="M5.293,3.245A2.553,2.553,0,0,0,3.606.869a2.717,2.717,0,0,0-2.911.655l1.066.342a.23.23,0,0,1,.153.293.243.243,0,0,1-.3.147L.165,1.843A.233.233,0,0,1,0,1.622V.232A.236.236,0,0,1,.241,0,.236.236,0,0,1,.481.232v.847A3.211,3.211,0,0,1,3.873.471a3.007,3.007,0,0,1,1.9,2.774.241.241,0,0,1-.481,0Z" transform="translate(0.482 0)" fill="#fff"/>
      <path id="Path_261" data-name="Path 261" d="M.241,0A.236.236,0,0,1,.481.232,2.553,2.553,0,0,0,2.169,2.608,2.717,2.717,0,0,0,5.08,1.953L4.014,1.61a.23.23,0,0,1-.153-.293.243.243,0,0,1,.3-.147l1.444.464a.233.233,0,0,1,.165.221V3.245a.241.241,0,0,1-.481,0V2.4A3.211,3.211,0,0,1,1.9,3.005,3.007,3.007,0,0,1,0,.232.236.236,0,0,1,.241,0Z" transform="translate(0 3.011)" fill="#fff"/>
    </g>
  </g>
</svg>
