<svg id="diet" xmlns="http://www.w3.org/2000/svg" width="20.591" height="20.591" viewBox="0 0 20.591 20.591">
  <path id="Path_238" data-name="Path 238" d="M407.273,219.5a.6.6,0,0,1-.177-.427v-.22a1.9,1.9,0,0,1,1.9-1.9h.22a.6.6,0,0,1,.6.6v.22a1.9,1.9,0,0,1-1.9,1.9h-.22A.6.6,0,0,1,407.273,219.5Z" transform="translate(-390.724 -208.23)" fill="#fff"/>
  <g id="Group_430" data-name="Group 430" transform="translate(9.947 9.551)">
    <path id="Path_239" data-name="Path 239" d="M256.51,239.919a3.079,3.079,0,0,1-1.92.666h-.22a1.81,1.81,0,0,1-1.81-1.809v-.22a3.146,3.146,0,0,1,.04-.5,2.373,2.373,0,0,0-.738-.521.6.6,0,1,0-.5,1.1,1.177,1.177,0,0,1,.678.889,3.51,3.51,0,0,0-2.944.212,3.474,3.474,0,0,0-1.736,3.428.61.61,0,0,0,.01.06,8.709,8.709,0,0,0,2.713,4.627l.263.235a1.7,1.7,0,0,0,2.2.06l.113-.09.116.092a1.7,1.7,0,0,0,2.2-.062l.263-.235a8.709,8.709,0,0,0,2.713-4.627c0-.02.008-.04.01-.06A3.47,3.47,0,0,0,256.51,239.919Z" transform="translate(-247.341 -237.483)" fill="#fff"/>
  </g>
  <path id="Path_240" data-name="Path 240" d="M77.842,4.424H70.6a.6.6,0,0,1-.58-.769A2.814,2.814,0,0,1,72.011,1.7V.6a.6.6,0,0,1,.6-.6h3.217a.6.6,0,0,1,.6.6V1.7a2.814,2.814,0,0,1,1.988,1.95.6.6,0,0,1-.58.769Z" transform="translate(-67.185)" fill="#fff"/>
  <g id="Group_431" data-name="Group 431" transform="translate(0 2.814)">
    <path id="Path_241" data-name="Path 241" d="M13.473,69.963H12.213a3.976,3.976,0,0,1,.184.51,1.81,1.81,0,0,1-1.74,2.307H3.418a1.81,1.81,0,0,1-1.74-2.307,3.983,3.983,0,0,1,.184-.51H.6a.6.6,0,0,0-.6.6v16.57a.6.6,0,0,0,.6.6H11.641A9.9,9.9,0,0,1,8.8,82.706a1.821,1.821,0,0,1-.031-.18,4.679,4.679,0,0,1,2.336-4.618,4.528,4.528,0,0,1,1.3-.494A1.811,1.811,0,0,1,14.076,75.5V70.566A.6.6,0,0,0,13.473,69.963ZM7.842,84.441H3.016a.6.6,0,0,1,0-1.207H7.842a.6.6,0,0,1,0,1.207Zm0-2.413H3.016a.6.6,0,0,1,0-1.207H7.842a.6.6,0,0,1,0,1.207Zm0-2.413H3.016a.6.6,0,1,1,0-1.207H7.842a.6.6,0,1,1,0,1.207Zm0-2.413H3.016a.6.6,0,1,1,0-1.207H7.842a.6.6,0,1,1,0,1.207Zm0-2.413H3.016a.6.6,0,1,1,0-1.207H7.842a.6.6,0,1,1,0,1.207ZM11.06,77.2h-.8a.6.6,0,1,1,0-1.207h.8a.6.6,0,1,1,0,1.207Zm0-2.413h-.8a.6.6,0,1,1,0-1.207h.8a.6.6,0,1,1,0,1.207Z" transform="translate(0 -69.963)" fill="#fff"/>
  </g>
</svg>
