<svg id="nurse" xmlns="http://www.w3.org/2000/svg" width="17.144" height="19.506" viewBox="0 0 17.144 19.506">
  <path id="Path_49" data-name="Path 49" d="M182.147,353.191a3.929,3.929,0,0,1-3,0l-.257,1,1.757,2.341L182.4,354.2Zm0,0" transform="translate(-172.075 -339.735)" fill="#bfbfbf"/>
  <path id="Path_50" data-name="Path 50" d="M329.685,212.143A1.144,1.144,0,0,0,328.542,211v1.714a3.956,3.956,0,0,1-.058.571h.058A1.144,1.144,0,0,0,329.685,212.143Zm0,0" transform="translate(-315.97 -202.961)" fill="#bfbfbf"/>
  <path id="Path_51" data-name="Path 51" d="M150,189.832a2.857,2.857,0,1,0,5.715,0v-1.714h-4.237l-.906-.906-.571.571Zm0,0" transform="translate(-144.285 -180.079)" fill="#bfbfbf"/>
  <path id="Path_52" data-name="Path 52" d="M177.791,82.176l-.656,2.622h-5.924l1.143,1.143h5.112a2.335,2.335,0,0,1,2.081,2.286V86.512A6.23,6.23,0,0,0,177.791,82.176Zm0,0" transform="translate(-164.688 -79.045)" fill="#bfbfbf"/>
  <path id="Path_53" data-name="Path 53" d="M123.2,4.61,124.339,0h-8.276l1.416,4.61Zm-4.7-2.857h1.143V.61h1.143V1.753h1.143V2.9h-1.143V4.038h-1.143V2.9H118.5Zm0,0" transform="translate(-111.641)" fill="#bfbfbf"/>
  <path id="Path_54" data-name="Path 54" d="M296.377,243.346a1.006,1.006,0,0,1-1.459-.9V241a2.288,2.288,0,0,1-2.286,2.286h-.4a4,4,0,0,1-1.079,1.366l.223.872,4.724.613a.979.979,0,0,0,1.1-.97v-2.235Zm0,0" transform="translate(-280.06 -231.818)" fill="#bfbfbf"/>
  <path id="Path_55" data-name="Path 55" d="M245.727,390.89l-3.425-.445-2.3,3.069v1.562h8v-1.61A2.6,2.6,0,0,0,245.727,390.89Zm0,0" transform="translate(-230.856 -375.57)" fill="#bfbfbf"/>
  <path id="Path_56" data-name="Path 56" d="M2.275,390.886A2.609,2.609,0,0,0,0,393.464v1.609H8v-1.562l-2.3-3.069Zm0,0" transform="translate(0 -375.566)" fill="#bfbfbf"/>
  <path id="Path_57" data-name="Path 57" d="M62.286,82.924h.335l1.143-1.143H62.709l-.849-2.742A6.228,6.228,0,0,0,60,83.593v1.617A2.288,2.288,0,0,1,62.286,82.924Zm0,0" transform="translate(-57.714 -76.028)" fill="#bfbfbf"/>
  <path id="Path_58" data-name="Path 58" d="M90,212.143a1.144,1.144,0,0,0,1.143,1.143H91.2a3.954,3.954,0,0,1-.058-.571V211A1.144,1.144,0,0,0,90,212.143Zm0,0" transform="translate(-86.571 -202.961)" fill="#bfbfbf"/>
  <path id="Path_59" data-name="Path 59" d="M1.1,246.137l4.724-.613.223-.872a4,4,0,0,1-1.079-1.366h-.4A2.288,2.288,0,0,1,2.286,241v1.445a1.006,1.006,0,0,1-1.459.9L0,242.933v2.235a.978.978,0,0,0,1.1.97Zm0,0" transform="translate(0 -231.818)" fill="#bfbfbf"/>
</svg>
