<svg xmlns="http://www.w3.org/2000/svg" width="15.946" height="15.945" viewBox="0 0 15.946 15.945">
  <g id="patch" transform="translate(0 -0.018)">
    <path id="Path_159" data-name="Path 159" d="M2.113,7.33,7.4,2.043l-.929-.929A3.739,3.739,0,1,0,1.183,6.4Z" transform="translate(-0.087 0)" fill="#fff"/>
    <path id="Path_160" data-name="Path 160" d="M282.489,277.212,277.2,282.5l.929.929a3.739,3.739,0,0,0,5.287-5.287Z" transform="translate(-268.568 -268.561)" fill="#fff"/>
    <path id="Path_161" data-name="Path 161" d="M14.85,1.183a3.743,3.743,0,0,0-5.287,0L1.1,9.65a3.739,3.739,0,0,0,5.287,5.287L14.85,6.471a3.737,3.737,0,0,0,0-5.287ZM6.32,8.391a.467.467,0,1,1,0-.66A.467.467,0,0,1,6.32,8.391Zm1.985,1.979a.467.467,0,1,1,0-.661A.467.467,0,0,1,8.305,10.371ZM7.627,7.73a.467.467,0,1,1,0,.66A.467.467,0,0,1,7.627,7.73Zm.679-1.322a.467.467,0,1,1,0-.66A.467.467,0,0,1,8.306,6.409Zm1.979,1.979a.467.467,0,1,1,0-.66A.467.467,0,0,1,10.286,8.388Z" transform="translate(0 -0.07)" fill="#fff"/>
  </g>
</svg>
