<svg xmlns="http://www.w3.org/2000/svg" width="19" height="16.889" viewBox="0 0 19 16.889">
  <path id="Icon_awesome-hospital-alt" data-name="Icon awesome-hospital-alt" d="M17.944,3.167H13.722V1.056A1.054,1.054,0,0,0,12.667,0H6.333A1.054,1.054,0,0,0,5.278,1.056V3.167H1.056A1.054,1.054,0,0,0,0,4.222V16.361a.529.529,0,0,0,.528.528H18.472A.529.529,0,0,0,19,16.361V4.222A1.054,1.054,0,0,0,17.944,3.167ZM5.278,14.382a.4.4,0,0,1-.4.4H3.563a.4.4,0,0,1-.4-.4V13.063a.4.4,0,0,1,.4-.4H4.882a.4.4,0,0,1,.4.4Zm0-4.222a.4.4,0,0,1-.4.4H3.563a.4.4,0,0,1-.4-.4V8.84a.4.4,0,0,1,.4-.4H4.882a.4.4,0,0,1,.4.4Zm5.278,4.222a.4.4,0,0,1-.4.4H8.84a.4.4,0,0,1-.4-.4V13.063a.4.4,0,0,1,.4-.4H10.16a.4.4,0,0,1,.4.4Zm0-4.222a.4.4,0,0,1-.4.4H8.84a.4.4,0,0,1-.4-.4V8.84a.4.4,0,0,1,.4-.4H10.16a.4.4,0,0,1,.4.4Zm.528-5.608a.2.2,0,0,1-.2.2h-.858v.858a.2.2,0,0,1-.2.2H9.17a.2.2,0,0,1-.2-.2V4.75H8.115a.2.2,0,0,1-.2-.2v-.66a.2.2,0,0,1,.2-.2h.858V2.837a.2.2,0,0,1,.2-.2h.66a.2.2,0,0,1,.2.2v.858h.858a.2.2,0,0,1,.2.2Zm4.75,9.83a.4.4,0,0,1-.4.4H14.118a.4.4,0,0,1-.4-.4V13.063a.4.4,0,0,1,.4-.4h1.319a.4.4,0,0,1,.4.4Zm0-4.222a.4.4,0,0,1-.4.4H14.118a.4.4,0,0,1-.4-.4V8.84a.4.4,0,0,1,.4-.4h1.319a.4.4,0,0,1,.4.4Z" fill="#329997"/>
</svg>
