<svg xmlns="http://www.w3.org/2000/svg" width="19" height="24.944" viewBox="0 0 19 24.944">
  <g id="insurance" transform="translate(-61)">
    <path id="Path_174" data-name="Path 174" d="M351,8.787v4.444h4.444Z" transform="translate(-275.872 -8.359)" fill="#329997"/>
    <path id="Path_175" data-name="Path 175" d="M176.645,192h-3.008A3.856,3.856,0,0,1,171,193.881v3.507a6.066,6.066,0,0,0,4.141,5.781,6.066,6.066,0,0,0,4.141-5.781v-3.507A3.856,3.856,0,0,1,176.645,192Zm1.079,4.741-2.756,2.756a.731.731,0,0,1-1.033,0l-1.378-1.378a.731.731,0,0,1,1.033-1.033l.861.861,2.239-2.239a.731.731,0,1,1,1.033,1.033Z" transform="translate(-104.641 -182.646)" fill="#329997"/>
    <path id="Path_176" data-name="Path 176" d="M74.4,6.333a.731.731,0,0,1-.731-.731V0H63.679A2.683,2.683,0,0,0,61,2.679V22.264a2.683,2.683,0,0,0,2.679,2.679H77.321A2.683,2.683,0,0,0,80,22.264V6.333ZM76.1,14.742A7.567,7.567,0,0,1,70.71,21.99a.73.73,0,0,1-.42,0A7.567,7.567,0,0,1,64.9,14.742v-4.17a.731.731,0,0,1,.731-.731A2.409,2.409,0,0,0,67.795,8.5l.1-.206a.731.731,0,0,1,.654-.4h3.9a.731.731,0,0,1,.654.4l.1.206a2.409,2.409,0,0,0,2.167,1.339.731.731,0,0,1,.731.731Z" transform="translate(0)" fill="#329997"/>
  </g>
</svg>
