<svg xmlns="http://www.w3.org/2000/svg" width="480.081" height="471.223" viewBox="0 0 480.081 471.223">
  <g id="cardiogram-svgrepo-com" transform="translate(-15.958 -26.003)">
    <path id="Path_160" data-name="Path 160" d="M42.632,26H469.365a26.754,26.754,0,0,1,26.674,26.669V329.383a26.754,26.754,0,0,1-26.674,26.673H42.632a26.754,26.754,0,0,1-26.674-26.673V52.672A26.75,26.75,0,0,1,42.632,26Z" fill="#ebecec"/>
    <path id="Path_161" data-name="Path 161" d="M102.643,54.34H472.7V307.716H102.643V54.34Z" fill="#0f7986"/>
    <g id="Group_229" data-name="Group 229">
      <path id="Path_162" data-name="Path 162" d="M60.182,227.613a17.556,17.556,0,1,1-17.556,17.556A17.557,17.557,0,0,1,60.182,227.613Z" fill="#c8c8c8"/>
      <path id="Path_163" data-name="Path 163" d="M60.182,274.188a8.969,8.969,0,1,1-8.969,8.969A8.966,8.966,0,0,1,60.182,274.188Z" fill="#c8c8c8"/>
    </g>
    <g id="Group_230" data-name="Group 230">
      <path id="Path_164" data-name="Path 164" d="M162.951,98.412a.765.765,0,0,1-.005.766m169.9-.766a.765.765,0,0,1-.005.766M247.9,98.412a.765.765,0,0,1-.005.766M114.5,104.043a.763.763,0,0,1,0-1.526h26.9L146.28,90.7a.765.765,0,0,1,.993-.416.774.774,0,0,1,.42.425h0l7.426,18.743,6.521-11.048a.765.765,0,0,1,1.044-.267.708.708,0,0,1,.272.277l3.834,5.88,5.482-5.829a.765.765,0,0,1,1.076-.032.7.7,0,0,1,.143.185h0l2.19,3.907q25.337,0,50.668,0l4.877-11.815a.764.764,0,0,1,.993-.415.774.774,0,0,1,.42.425h0l7.426,18.743,6.521-11.048a.765.765,0,0,1,1.044-.267.708.708,0,0,1,.272.277l3.834,5.88,5.482-5.829a.765.765,0,0,1,1.076-.032.7.7,0,0,1,.143.185h0l2.19,3.907q25.336,0,50.668,0l4.877-11.815a.764.764,0,0,1,.993-.416.774.774,0,0,1,.42.425h0l7.427,18.743,6.521-11.048a.765.765,0,0,1,1.044-.267.708.708,0,0,1,.272.277l3.834,5.88,5.482-5.829a.765.765,0,0,1,1.076-.032.7.7,0,0,1,.143.185h0l2.19,3.907h38.549a.763.763,0,0,1,0,1.526H345.13a.758.758,0,0,1-.665-.388l-1.9-3.39-5.436,5.778h0a.864.864,0,0,1-.139.116.76.76,0,0,1-1.053-.222l-3.718-5.7-6.679,11.307a.759.759,0,0,1-1.376-.083l-7.307-18.438-4.328,10.49a.762.762,0,0,1-.726.531q-25.807,0-51.619,0h0a.758.758,0,0,1-.665-.388l-1.9-3.39-5.436,5.778h0a.864.864,0,0,1-.139.116.76.76,0,0,1-1.053-.222l-3.718-5.7L240.6,111.571a.769.769,0,0,1-.388.346.761.761,0,0,1-.988-.429l-7.3-18.438-4.328,10.49a.762.762,0,0,1-.726.531h-12.54a.468.468,0,0,1-.083,0h-39a.758.758,0,0,1-.665-.388l-1.9-3.39-5.436,5.778h0a.864.864,0,0,1-.139.116.759.759,0,0,1-1.053-.222l-3.718-5.7-6.679,11.307a.759.759,0,0,1-1.376-.083l-7.3-18.438-4.328,10.49a.762.762,0,0,1-.726.531H114.518Z" fill="#fefefe"/>
      <path id="Path_165" data-name="Path 165" d="M335.664,171.476a.758.758,0,0,0,.009.767m-140.562-.767a.767.767,0,0,0,.005.767m68.939-.767a.767.767,0,0,0,.005.767m120.06,4.864a.763.763,0,1,0,0-1.526h-26.9l-4.877-11.815a.764.764,0,0,0-.993-.416.754.754,0,0,0-.416.425h-.005l-7.423,18.743L336.98,171.47a.765.765,0,0,0-1.044-.267.708.708,0,0,0-.272.277l-3.834,5.88-5.482-5.829a.765.765,0,0,0-1.076-.032.7.7,0,0,0-.143.185h0l-2.19,3.907c-16.891,0-20.443-.005-37.333-.005l-4.877-11.815a.764.764,0,0,0-.993-.416.754.754,0,0,0-.416.425h-.005l-7.427,18.743-6.521-11.048a.765.765,0,0,0-1.044-.267.708.708,0,0,0-.272.277l-3.834,5.88-5.482-5.829a.765.765,0,0,0-1.076-.032.7.7,0,0,0-.143.185h0l-2.19,3.907c-16.891,0-17.777-.005-34.664-.005l-4.877-11.815a.764.764,0,0,0-.993-.416.774.774,0,0,0-.42.425h-.005l-7.423,18.743-6.521-11.048a.765.765,0,0,0-1.044-.267.709.709,0,0,0-.272.277l-3.834,5.88-5.482-5.829a.765.765,0,0,0-1.076-.032.7.7,0,0,0-.143.185h0l-2.19,3.907H114.5a.763.763,0,1,0,0,1.526h68.331a.758.758,0,0,0,.665-.388l1.9-3.39,5.431,5.778h0a.864.864,0,0,0,.139.116.76.76,0,0,0,1.053-.222l3.718-5.7,6.679,11.307a.759.759,0,0,0,1.376-.083l7.3-18.438,4.328,10.49a.762.762,0,0,0,.726.531c17.205,0,18.41.005,35.62.005h0a.758.758,0,0,0,.665-.388l1.9-3.39,5.431,5.778h0a.864.864,0,0,0,.139.116.76.76,0,0,0,1.053-.222l3.718-5.7,6.679,11.307a.759.759,0,0,0,1.376-.083l7.3-18.438,4.328,10.49a.762.762,0,0,0,.726.531c17.209,0,21.08.005,38.285.005h0a.763.763,0,0,0,.665-.388l1.9-3.39,5.431,5.778h0a.864.864,0,0,0,.139.116.76.76,0,0,0,1.053-.222l3.718-5.7,6.679,11.307a.759.759,0,0,0,1.376-.083l7.3-18.438,4.328,10.49a.762.762,0,0,0,.726.531H384.1Z" fill="#fefefe"/>
      <path id="Path_166" data-name="Path 166" d="M113.986,254.813c.06-.005,20.373-1.5,24.318-.258.758.241,1.4-.661,2.1-1.658v-.005c1.8-2.531,3.879-5.473,9.806-.758a112.014,112.014,0,0,1,12.544,11.5c1.57-.739,5.681-2.79,6.212-4.324.443-1.28,2.287-2.273,4.6-3a45.075,45.075,0,0,1,9.117-1.7,13,13,0,0,0,4.18-1.575c3.275-1.626,6.841-3.4,10.346-.716,2.327,1.783,3.686,4.337,4.886,6.6s2.222,4.18,3.691,4.222c1.972.051,4.614-2.153,7.039-4.18a23.526,23.526,0,0,1,4.554-3.28c2.194-1,5.584-1.086,8.466-1.16a24.021,24.021,0,0,0,4-.286,2.947,2.947,0,0,0,1.52-1.367c.961-1.348,1.912-2.688,4.772-2.009h0a24.466,24.466,0,0,1,6.688,2.886,16.486,16.486,0,0,1,4.877,4.24,9.019,9.019,0,0,0,1.57,1.654,13.309,13.309,0,0,0,4.841,2.642,5.37,5.37,0,0,0,6.078-1.593,18.336,18.336,0,0,1,6.5-5.321,19.332,19.332,0,0,1,7.792-1.358,7.941,7.941,0,0,0,5.238-1.81,6.3,6.3,0,0,1,5.094-1.561c3.048.332,5.289,2.54,7.561,4.785a21.277,21.277,0,0,0,4.4,3.658c.661.36,1.215.693,1.746,1.007,2.831,1.682,4.909,2.919,7.7-.3a16.36,16.36,0,0,1,5.848-4.614,16.6,16.6,0,0,1,6.457-1.169c1.8-.037,3.482-1.183,5.076-2.268,2.327-1.589,4.512-3.076,7.238-1.815,2.217,1.03,4.111,3.418,6.055,5.871,1.833,2.318,3.718,4.7,5.788,5.755a19.169,19.169,0,0,0,5.436,2.171,2.037,2.037,0,0,0,2.369-1.635c.2-.6.36-1.132.508-1.64.965-3.32,1.672-5.746,7.316-5.843a29.953,29.953,0,0,0,7.386-1.16,21.562,21.562,0,0,0,6.249-2.624,6.805,6.805,0,0,1,4.12-1.589c1.617.014,3.408.794,5.3,3.021,3.556,4.185,3.691,5.363,3.691,5.367l-1.875.208c0-.005-.069-.605-3.252-4.355-1.478-1.742-2.767-2.346-3.875-2.355a5.044,5.044,0,0,0-2.974,1.215,23.459,23.459,0,0,1-6.878,2.928,31.828,31.828,0,0,1-7.857,1.224c-4.254.074-4.8,1.935-5.533,4.485-.162.564-.337,1.155-.531,1.723-.826,2.415-2.341,3.146-4.378,2.9a20.309,20.309,0,0,1-6.069-2.369c-2.429-1.243-4.443-3.783-6.406-6.263-1.8-2.273-3.547-4.485-5.367-5.326-1.76-.817-3.515.383-5.385,1.658-1.819,1.238-3.728,2.54-6.1,2.591a14.9,14.9,0,0,0-5.746,1.011,14.611,14.611,0,0,0-5.164,4.115c-3.825,4.415-6.475,2.84-10.087.693-.559-.332-1.141-.679-1.691-.979a22.8,22.8,0,0,1-4.818-3.967c-2.037-2.009-4.041-3.995-6.434-4.254a4.74,4.74,0,0,0-3.788,1.206,9.534,9.534,0,0,1-6.314,2.171,17.7,17.7,0,0,0-7.062,1.2,16.6,16.6,0,0,0-5.825,4.822,7.524,7.524,0,0,1-1.473,1.344,7.611,7.611,0,0,1-6.54.845,15.218,15.218,0,0,1-5.561-3.021,10.845,10.845,0,0,1-1.9-2.023,14.667,14.667,0,0,0-4.31-3.7,22.484,22.484,0,0,0-6.138-2.661h-.005c-1.621-.383-2.208.439-2.8,1.266a4.4,4.4,0,0,1-2.619,2.106,24.641,24.641,0,0,1-4.392.337c-2.7.069-5.88.153-7.737,1a22.452,22.452,0,0,0-4.115,3.007c-2.688,2.245-5.612,4.684-8.3,4.614-2.577-.069-3.834-2.429-5.317-5.215-1.113-2.092-2.369-4.461-4.36-5.986-2.573-1.972-5.593-.471-8.37.91a14.167,14.167,0,0,1-4.877,1.765,43.325,43.325,0,0,0-8.693,1.612c-1.788.564-3.164,1.2-3.381,1.819-.928,2.661-7.838,5.7-7.857,5.714l-.628.272-.453-.517A104.884,104.884,0,0,0,149.058,253.6c-4.369-3.473-5.834-1.408-7.1.374h0c-1.123,1.589-2.143,3.021-4.2,2.369-3.593-1.136-23.56.332-23.621.337L114,254.8Z" fill="#fefefe"/>
    </g>
    <g id="Group_231" data-name="Group 231">
      <path id="Path_167" data-name="Path 167" d="M391.593,111.631h69.18v2.919h-69.18Z" fill="#21d0c3"/>
      <path id="Path_168" data-name="Path 168" d="M391.593,83.078h22.9V86h-22.9Z" fill="#21d0c3"/>
      <path id="Path_169" data-name="Path 169" d="M391.593,96h45v2.923h-45V96Z" fill="#21d0c3"/>
      <path id="Path_170" data-name="Path 170" d="M391.593,182.894h69.18v2.919h-69.18Z" fill="#21d0c3"/>
      <path id="Path_171" data-name="Path 171" d="M391.593,154.341h22.9v2.919h-22.9Z" fill="#21d0c3"/>
      <path id="Path_172" data-name="Path 172" d="M391.593,167.264h45v2.923h-45v-2.923Z" fill="#21d0c3"/>
      <path id="Path_173" data-name="Path 173" d="M391.593,268.11h69.18v2.923h-69.18Z" fill="#21d0c3"/>
      <path id="Path_174" data-name="Path 174" d="M391.593,239.557h22.9v2.923h-22.9Z" fill="#21d0c3"/>
      <path id="Path_175" data-name="Path 175" d="M391.593,252.481h45V255.4h-45v-2.919Z" fill="#21d0c3"/>
    </g>
    <path id="Path_176" data-name="Path 176" d="M48.155,78.9H71.91A12.116,12.116,0,0,1,83.992,90.985h0A12.116,12.116,0,0,1,71.91,103.067H48.155A12.116,12.116,0,0,1,36.073,90.985h0A12.119,12.119,0,0,1,48.155,78.9Z" fill="#c8c8c8"/>
    <path id="Path_177" data-name="Path 177" d="M381.9,478.935c-11.7-13.353-27.2-39.333-27.417-83.341l9.395-.037c.2,43.112,15.657,67.148,26.2,78.552q-4.039,2.487-8.18,4.832v-.005h0Z" fill="#666"/>
    <g id="Group_232" data-name="Group 232">
      <path id="Path_178" data-name="Path 178" d="M48.155,125.16H71.91a12.116,12.116,0,0,1,12.082,12.082h0A12.116,12.116,0,0,1,71.91,149.324H48.155a12.116,12.116,0,0,1-12.082-12.082h0A12.12,12.12,0,0,1,48.155,125.16Z" fill="#c8c8c8"/>
      <path id="Path_179" data-name="Path 179" d="M48.155,171.416H71.91A12.116,12.116,0,0,1,83.992,183.5h0A12.116,12.116,0,0,1,71.91,195.58H48.155A12.116,12.116,0,0,1,36.073,183.5h0A12.12,12.12,0,0,1,48.155,171.416Z" fill="#c8c8c8"/>
    </g>
    <rect id="Rectangle_113" data-name="Rectangle 113" width="38.185" height="15.969" transform="translate(340.435 356.055)" fill="#fad24d"/>
    <rect id="Rectangle_114" data-name="Rectangle 114" width="12.49" height="23.542" transform="translate(353.28 372.023)" fill="#edb937"/>
    <path id="Path_180" data-name="Path 180" d="M326.8,478.935c-11.7-13.353-27.2-39.333-27.417-83.341l9.395-.037c.2,43.112,15.657,67.148,26.2,78.552,1.742,2.1,10.119,11.69,16.808,19.357q-4.9,1.982-9.912,3.76C336.237,490.98,328.894,481.507,326.8,478.935Z" fill="#666"/>
    <rect id="Rectangle_115" data-name="Rectangle 115" width="38.185" height="15.969" transform="translate(285.333 356.055)" fill="#fad24d"/>
    <rect id="Rectangle_116" data-name="Rectangle 116" width="12.49" height="23.542" transform="translate(298.178 372.023)" fill="#edb937"/>
    <g id="Group_233" data-name="Group 233">
      <path id="Path_181" data-name="Path 181" d="M60.182,231.206a13.963,13.963,0,1,1-13.963,13.963A13.963,13.963,0,0,1,60.182,231.206Z" fill="#fff"/>
      <path id="Path_182" data-name="Path 182" d="M60.182,276.941a6.217,6.217,0,1,1-6.217,6.217A6.22,6.22,0,0,1,60.182,276.941Z" fill="#fff"/>
    </g>
    <path id="Path_183" data-name="Path 183" d="M125.446,356.057H271.639v21.311H236.532v42.774a12.754,12.754,0,0,1-12.715,12.715H179.079a12.754,12.754,0,0,1-12.715-12.715V377.368H125.451V356.057Z" fill="#ebecec"/>
    <g id="Group_234" data-name="Group 234">
      <path id="Path_184" data-name="Path 184" d="M235.308,425.569a12.752,12.752,0,0,1-11.492,7.289H179.078a12.752,12.752,0,0,1-11.492-7.289Z" fill="#c8c8c8"/>
      <path id="Path_185" data-name="Path 185" d="M125.446,356.057H271.639v21.311Z" fill="#c8c8c8"/>
    </g>
    <path id="Path_186" data-name="Path 186" d="M40.77,394.651H166.359v22.614H57.189A257.433,257.433,0,0,1,40.77,394.651Z" fill="#ebecec"/>
    <path id="Path_187" data-name="Path 187" d="M166.359,412.585v4.679H57.189q-1.885-2.314-3.709-4.679Z" fill="#c8c8c8"/>
    <path id="Path_188" data-name="Path 188" d="M47.6,77.951H71.351A12.116,12.116,0,0,1,83.433,90.033h0a12.116,12.116,0,0,1-12.082,12.082H47.6A12.116,12.116,0,0,1,35.514,90.033h0A12.12,12.12,0,0,1,47.6,77.951Z" fill="#fad24d"/>
    <path id="Path_189" data-name="Path 189" d="M47.6,124.208H71.351A12.116,12.116,0,0,1,83.433,136.29h0a12.116,12.116,0,0,1-12.082,12.082H47.6A12.116,12.116,0,0,1,35.514,136.29h0A12.12,12.12,0,0,1,47.6,124.208Z" fill="#ff5b62"/>
    <path id="Path_190" data-name="Path 190" d="M47.6,170.47H71.351a12.116,12.116,0,0,1,12.082,12.082h0a12.116,12.116,0,0,1-12.082,12.082H47.6a12.116,12.116,0,0,1-12.082-12.082h0A12.119,12.119,0,0,1,47.6,170.47Z" fill="#21d0c3"/>
  </g>
</svg>
